<svg xmlns="http://www.w3.org/2000/svg" xmlns:xlink="http://www.w3.org/1999/xlink" viewBox="0 0 94 13">
  <path fill="#172866" d="M14.23.71L13.8 3.1h3.74l-1.46 8.34H19l1.46-8.34h3.8l.43-2.38z"/>
  <path fill="#D9D9DB" d="M50.7.71L47.18 4.3 44.9.71h-2.7l-1.88 10.73h2.77l1.14-6.56 1.71 2.99h1.36l2.66-2.96-1.13 6.53h2.76L53.47.7z"/>
  <path fill="#172866" d="M69.49.71l-.44 2.38h3.75l-1.46 8.34h2.9L75.7 3.1h3.8l.43-2.38z"/>
  <g transform="translate(.5 -.1)">
    <mask id="b" fill="#fff">
      <path id="a" d="M0 .23v10.16h10.16V.23H0z"/>
    </mask>
    <path fill="#D9D9DB" d="M1.74 10.39a5.96 5.96 0 010-8.43 5.96 5.96 0 018.42.01l-2.1 2.1a2.98 2.98 0 00-4.22 0 2.99 2.99 0 000 4.22l-2.1 2.1z" mask="url(#b)"/>
  </g>
  <path fill="#172866" d="M10.67 1.86a5.96 5.96 0 010 8.43 5.96 5.96 0 01-8.43 0l2.1-2.11a2.99 2.99 0 004.22 0 2.99 2.99 0 000-4.22l2.1-2.1zm17.21 8.42a5.96 5.96 0 010-8.42 5.96 5.96 0 018.43 0l-2.1 2.1a2.98 2.98 0 00-4.22 0 2.99 2.99 0 000 4.22l-2.1 2.1z"/>
  <path fill="#D9D9DB" d="M36.31 1.86a5.96 5.96 0 010 8.43 5.96 5.96 0 01-8.42 0l2.1-2.11a2.99 2.99 0 004.22 0 2.99 2.99 0 000-4.22l2.1-2.1zm21.18 8.42a5.96 5.96 0 010-8.42 5.96 5.96 0 018.42 0l-2.1 2.1a2.98 2.98 0 00-4.22 0 2.99 2.99 0 000 4.22l-2.1 2.1z"/>
  <path fill="#172866" d="M65.92 1.86a5.96 5.96 0 010 8.43 5.96 5.96 0 01-8.43 0l2.1-2.11a2.99 2.99 0 004.22 0 2.99 2.99 0 000-4.22l2.1-2.1zm17.21 8.42a5.96 5.96 0 010-8.42 5.96 5.96 0 018.43 0l-2.1 2.1a2.98 2.98 0 00-4.22 0 2.99 2.99 0 000 4.22l-2.1 2.1z"/>
  <path fill="#D9D9DB" d="M91.56 1.86a5.96 5.96 0 010 8.43 5.96 5.96 0 01-8.43 0l2.1-2.11a2.99 2.99 0 004.23 0 2.99 2.99 0 000-4.22l2.1-2.1z"/>
</svg>