<svg width="256" height="256" xmlns="http://www.w3.org/2000/svg" version="1.1">
    <svg xmlns="http://www.w3.org/2000/svg" viewBox="0 0 30 30" width="256" height="256">
        <path fill="#303c42"
              d="M28.5 13c-.827 0-1.5.673-1.5 1.5V17h-2v-2.914c0-.511-.2-.992-.56-1.354l-2.172-2.171A1.902 1.902 0 0 0 20.914 10H17V7h2.5c.827 0 1.5-.673 1.5-1.5S20.327 4 19.5 4h-8c-.827 0-1.5.673-1.5 1.5S10.673 7 11.5 7H14v3h-2.914c-.511 0-.992.2-1.354.56l-2.171 2.172a.921.921 0 0 1-.647.268H6.5c-.827 0-1.5.673-1.5 1.5V17H3v-2.5c0-.827-.673-1.5-1.5-1.5S0 13.673 0 14.5v8c0 .827.673 1.5 1.5 1.5S3 23.327 3 22.5V20h2v2.5c0 .827.673 1.5 1.5 1.5h.572c.18 0 .357.053.507.153l2.287 1.526c.316.21.683.321 1.062.321h8.986c.511 0 .992-.2 1.354-.56l3.171-3.172c.362-.362.561-.843.561-1.354V20h2v2.5c0 .827.673 1.5 1.5 1.5s1.5-.673 1.5-1.5v-8c0-.827-.673-1.5-1.5-1.5z">
        </path>
    </svg>
</svg>