<svg width="256" height="256" xmlns="http://www.w3.org/2000/svg" version="1.1">
    <svg xmlns="http://www.w3.org/2000/svg" viewBox="0 0 30 30" width="256" height="256">
        <path fill="#303c42"
              d="m25.414 11.707-6.121-6.121A2.012 2.012 0 0 0 17.879 5H15V4c0-1.103-.897-2-2-2H8c-1.103 0-2 .897-2 2v1c-1.103 0-2 .897-2 2v19c0 1.103.897 2 2 2h18c1.103 0 2-.897 2-2V13.121c0-.526-.214-1.042-.586-1.414zM13 23c-1.654 0-3-1.3-3-2.9 0-1.423 2.168-4.334 2.603-4.903a.518.518 0 0 1 .794 0c.435.569 2.603 3.48 2.603 4.903 0 1.6-1.346 2.9-3 2.9zm9.963-7.037a1.822 1.822 0 0 1-1.296.537c-.49 0-.95-.19-1.297-.537l-5.333-5.334a1.835 1.835 0 0 1 0-2.592c.692-.692 1.9-.693 2.593 0l5.333 5.334a1.835 1.835 0 0 1 0 2.592z">
        </path>
    </svg>
</svg>