<svg id="SvgjsSvg1023" width="256" height="256" xmlns="http://www.w3.org/2000/svg" version="1.1">
    <svg xmlns="http://www.w3.org/2000/svg" viewBox="0 0 30 30" width="256" height="256">
        <path fill="#303c42"
              d="M27.5 14h-1.6l.767-.768a.5.5 0 0 0 0-.707l-.707-.707a.5.5 0 0 0-.707 0L23.07 14h-5.657l4-4H24.5a.5.5 0 0 0 .5-.5v-1a.5.5 0 0 0-.5-.5h-1.086l1.132-1.132a.5.5 0 0 0 0-.707l-.707-.707a.5.5 0 0 0-.707 0L22 6.586V5.5a.5.5 0 0 0-.5-.5h-1a.5.5 0 0 0-.5.5v3.086l-4 4V6.929l2.182-2.182a.5.5 0 0 0 0-.707l-.707-.707a.5.5 0 0 0-.707 0L16 4.101V2.5a.5.5 0 0 0-.5-.5h-1a.5.5 0 0 0-.5.5v1.6l-.768-.767a.5.5 0 0 0-.707 0l-.707.707a.5.5 0 0 0 0 .707L14 6.93v5.657l-4-4V5.5a.5.5 0 0 0-.5-.5h-1a.5.5 0 0 0-.5.5v1.086L6.868 5.454a.5.5 0 0 0-.707 0l-.707.707a.5.5 0 0 0 0 .707L6.586 8H5.5a.5.5 0 0 0-.5.5v1a.5.5 0 0 0 .5.5h3.086l4 4H6.929l-2.182-2.182a.5.5 0 0 0-.707 0l-.707.707a.5.5 0 0 0 0 .707l.768.768H2.5a.5.5 0 0 0-.5.5v1a.5.5 0 0 0 .5.5h1.6l-.767.768a.5.5 0 0 0 0 .707l.707.707a.498.498 0 0 0 .707 0L6.93 16h5.657l-4 4H5.5a.5.5 0 0 0-.5.5v1a.5.5 0 0 0 .5.5h1.086l-1.132 1.132a.5.5 0 0 0 0 .707l.707.707a.498.498 0 0 0 .707 0L8 23.414V24.5a.5.5 0 0 0 .5.5h1a.5.5 0 0 0 .5-.5v-3.086l4-4v5.657l-2.182 2.182a.5.5 0 0 0 0 .707l.707.707a.5.5 0 0 0 .707 0l.768-.768V27.5a.5.5 0 0 0 .5.5h1a.5.5 0 0 0 .5-.5v-1.6l.768.767a.498.498 0 0 0 .707 0l.707-.707a.5.5 0 0 0 0-.707L16 23.07v-5.657l4 4V24.5a.5.5 0 0 0 .5.5h1a.5.5 0 0 0 .5-.5v-1.086l1.132 1.132a.498.498 0 0 0 .707 0l.707-.707a.5.5 0 0 0 0-.707L23.414 22H24.5a.5.5 0 0 0 .5-.5v-1a.5.5 0 0 0-.5-.5h-3.086l-4-4h5.657l2.182 2.182a.498.498 0 0 0 .707 0l.707-.707a.5.5 0 0 0 0-.707L25.899 16H27.5a.5.5 0 0 0 .5-.5v-1a.5.5 0 0 0-.5-.5z">
        </path>
    </svg>
</svg>